<?xml version="1.0" encoding="utf-8"?>
<!-- Generator: Adobe Illustrator 25.2.1, SVG Export Plug-In . SVG Version: 6.00 Build 0)  -->
<svg version="1.1" id="Layer_1" xmlns="http://www.w3.org/2000/svg" xmlns:xlink="http://www.w3.org/1999/xlink" x="0px" y="0px"
	 viewBox="0 0 149.2 172.2" style="enable-background:new 0 0 149.2 172.2;" xml:space="preserve">
<style type="text/css">
	.st0{display:none;fill:#333333;}
	.st1{display:none;fill:#FFFFFF;}
	.st2{display:none;}
	.st3{display:inline;fill:#FFFFFF;}
	.st4{display:inline;}
	.st5{fill:#F3852E;}
	.st6{fill:#FFCF15;}
</style>
<polygon class="st0" points="149.2,129.2 74.6,172.2 0,129.2 0,43.1 74.6,0 149.2,43.1 "/>
<path class="st1" d="M91,41.1c-3.1,0-6,1.4-7.9,3.9L67.9,64.4l0,0l1.6-18c0.3-2.8-2-5.3-4.8-5.3l0,0c-0.9,0-1.6,0.7-1.7,1.6
	l-3.3,38.5c-0.1,1.7,2,2.6,3.1,1.2l29.5-38.6C93.1,42.7,92.3,41.1,91,41.1L91,41.1z M45.3,129.5l7.3-83.2c0.2-2.8-1.9-5.2-4.7-5.2
	h-0.1c-0.9,0-1.6,0.7-1.7,1.6l-7.3,83.1c-0.2,2.8,2,5.3,4.8,5.3l0,0C44.5,131.1,45.2,130.4,45.3,129.5z M97.9,120.5L77.5,89.3
	c-0.6-0.9-0.5-2,0.1-2.8l32.5-42.7c0.9-1.1,0.1-2.8-1.4-2.8l0,0c-2.8,0-5.5,1.3-7.2,3.5l-31.8,41c-0.8,1.1-0.9,2.6-0.2,3.7L94.1,127
	c1.2,2.5,9,6.5,8.6,1.9L97.9,120.5z M81.2,128.4C77,122,66.3,105.5,61.3,97.8c-0.9-1.4-3-0.8-3.1,0.8l-2.4,27.3
	c-0.2,2.8,1.9,5.2,4.7,5.2h0.1c0.9,0,1.7-0.7,1.7-1.6c0.2-2.4,0.6-7.2,0.9-10.9c0.1-1.6,2.2-2.2,3.1-0.8l6.2,9.4
	c1.6,2.4,4.3,3.9,7.2,3.9h0.1C81.1,131.1,81.9,129.6,81.2,128.4z"/>
<g id="k_9_" class="st2">
	<path class="st3" d="M48.4,131L48.4,131c-3.9,0-7-3.1-7-7V48.2c0-3.9,3.1-7,7-7l0,0c3.9,0,7,3.1,7,7V124
		C55.4,127.9,52.3,131,48.4,131z"/>
	<path class="st3" d="M43.4,129L43.4,129c-2.7-2.7-2.7-7.2,0-9.9l52.4-52.4c2.7-2.7,7.2-2.7,9.9,0l0,0c2.7,2.7,2.7,7.2,0,9.9
		L53.4,129C50.6,131.8,46.2,131.8,43.4,129z"/>
	<path class="st3" d="M69.4,93.2L69.4,93.2c2.7-2.7,7.2-2.7,9.9,0l25.8,25.8c2.7,2.7,2.7,7.2,0,9.9l0,0c-2.7,2.7-7.2,2.7-9.9,0
		l-25.8-25.8C66.6,100.4,66.6,95.9,69.4,93.2z"/>
</g>
<g>
	<g class="st2">
		<g class="st4">
			<circle class="st5" cx="114.1" cy="121.9" r="23.9"/>
		</g>
		<g class="st4">
			<path class="st5" d="M26.7,105.2c-9.9-16.9,3.7-38.4,23.1-35.7c0.6,0.1,1.1,0.2,1.7,0.3c20.7,4.2,38.7,24.4,68,13.5
				c34.2-12.7,24.9-58-1.3-68.4C70.8-3.8,26.9,19.5,12.7,62.1c-10.4,31-2,56.1,11.4,74.6c17.4,23.9,78.3,53.3,53.8-2.7
				c-7.3-16.8-12.6-13.1-31.1-16c-6-0.9-16.3-6.3-19.4-11.6L26.7,105.2z"/>
		</g>
	</g>
	<g>
		<g>
			<circle class="st6" cx="111.6" cy="120.9" r="23.9"/>
		</g>
		<g>
			<path class="st6" d="M24.2,104.2c-9.9-16.9,3.7-38.4,23.1-35.7c0.6,0.1,1.1,0.2,1.7,0.3c20.7,4.2,38.7,24.4,68,13.5
				c34.2-12.7,24.9-58-1.3-68.4C68.4-4.9,24.4,18.5,10.2,61.1c-10.4,31-2,56.1,11.4,74.6C39,159.6,99.9,189,75.4,133
				c-7.3-16.8-12.6-13.1-31.1-16c-6-0.9-16.3-6.3-19.4-11.6L24.2,104.2z"/>
		</g>
	</g>
</g>
</svg>
