<?xml version="1.0" encoding="utf-8"?>
<!-- Generator: Adobe Illustrator 24.3.0, SVG Export Plug-In . SVG Version: 6.00 Build 0)  -->
<svg version="1.1" id="Layer_1" xmlns="http://www.w3.org/2000/svg" xmlns:xlink="http://www.w3.org/1999/xlink" x="0px" y="0px"
	 viewBox="0 0 149.2 172.2" style="enable-background:new 0 0 149.2 172.2;" xml:space="preserve">
<style type="text/css">
	.st0{fill:#585858;}
	.st1{display:none;fill:#3F3F3F;}
	.st2{fill:#FFFFFF;}
</style>
<polygon class="st0" points="149.2,129.2 74.6,172.2 0,129.2 0,43.1 74.6,0 149.2,43.1 "/>
<circle class="st1" cx="74.6" cy="86.1" r="73.4"/>
<path class="st2" d="M91,41.1c-3.1,0-6,1.4-7.9,3.9L67.9,64.4l0,0l1.6-18c0.3-2.8-2-5.3-4.8-5.3h0c-0.9,0-1.6,0.7-1.7,1.6l-3.3,38.5
	c-0.1,1.7,2,2.6,3.1,1.2l29.5-38.6C93.1,42.7,92.3,41.1,91,41.1L91,41.1z M45.3,129.5l7.3-83.2c0.2-2.8-1.9-5.2-4.7-5.2h-0.1
	c-0.9,0-1.6,0.7-1.7,1.6l-7.3,83.1c-0.2,2.8,2,5.3,4.8,5.3h0C44.5,131.1,45.2,130.4,45.3,129.5z M97.9,120.5L77.5,89.3
	c-0.6-0.9-0.5-2,0.1-2.8l32.5-42.7c0.9-1.1,0.1-2.8-1.4-2.8h0c-2.8,0-5.5,1.3-7.2,3.5l-31.8,41c-0.8,1.1-0.9,2.6-0.2,3.7L94.1,127
	c1.2,2.5,9,6.5,8.6,1.9L97.9,120.5z M81.2,128.4C77,122,66.3,105.5,61.3,97.8c-0.9-1.4-3-0.8-3.1,0.8l-2.4,27.3
	c-0.2,2.8,1.9,5.2,4.7,5.2h0.1c0.9,0,1.7-0.7,1.7-1.6c0.2-2.4,0.6-7.2,0.9-10.9c0.1-1.6,2.2-2.2,3.1-0.8l6.2,9.4
	c1.6,2.4,4.3,3.9,7.2,3.9h0.1C81.1,131.1,81.9,129.6,81.2,128.4z"/>
</svg>
